<svg width="12" height="10" viewBox="0 0 12 10" fill="none" xmlns="http://www.w3.org/2000/svg">
<path d="M11 8.24075C11 8.48632 10.9042 8.72183 10.7337 8.89548C10.5632 9.06912 10.332 9.16668 10.0909 9.16668H1.90909C1.66799 9.16668 1.43675 9.06912 1.26627 8.89548C1.09578 8.72183 1 8.48632 1 8.24075V3.14816C1 2.90259 1.09578 2.66707 1.26627 2.49343C1.43675 2.31978 1.66799 2.22223 1.90909 2.22223H3.72727L4.63636 0.833344H7.36364L8.27273 2.22223H10.0909C10.332 2.22223 10.5632 2.31978 10.7337 2.49343C10.9042 2.66707 11 2.90259 11 3.14816V8.24075Z" stroke="#FF7070" stroke-width="1.25" stroke-linecap="round" stroke-linejoin="round"/>
<path d="M6 7.31482C7.00415 7.31482 7.81818 6.48572 7.81818 5.46297C7.81818 4.44022 7.00415 3.61112 6 3.61112C4.99585 3.61112 4.18182 4.44022 4.18182 5.46297C4.18182 6.48572 4.99585 7.31482 6 7.31482Z" stroke="#FF7070" stroke-width="1.25" stroke-linecap="round" stroke-linejoin="round"/>
</svg>